<svg xmlns="http://www.w3.org/2000/svg" xmlns:xlink="http://www.w3.org/1999/xlink" width="40" height="40" viewBox="0 0 40 40"><title>编组 14</title><defs><filter id="a" width="120.2%" height="135.4%" x="-10.1%" y="-14%" filterUnits="objectBoundingBox"><feOffset dy="10" in="SourceAlpha" result="shadowOffsetOuter1"/><feGaussianBlur in="shadowOffsetOuter1" result="shadowBlurOuter1" stdDeviation="14.5"/><feColorMatrix in="shadowBlurOuter1" values="0 0 0 0 0 0 0 0 0 0 0 0 0 0 0 0 0 0 0.06 0"/></filter><path id="b" d="M467 0c7.732 0 14 6.268 14 14v233c0 7.732-6.268 14-14 14H353.036l-12.174 12.205a4 4 0 0 1-5.664 0L323.024 261H14c-7.732 0-14-6.268-14-14V14C0 6.268 6.268 0 14 0z"/></defs><g fill="none" fill-rule="evenodd"><g transform="translate(-42 -33)"><use xlink:href="#b" fill="#000" filter="url(#a)"/><use xlink:href="#b" fill="#fff"/></g><g fill-rule="nonzero" transform="translate(0 .25)"><rect width="20.487" height="24.585" x="6" y="11.712" stroke="#444" stroke-width="4" rx="1"/><path fill="#444" d="M36 2.016v26.71a.5.5 0 0 1-.5.5h-3.035a.5.5 0 0 1-.5-.5V6.046l-19.674.001a.5.5 0 0 1-.5-.5V2.516a.5.5 0 0 1 .5-.5z"/></g></g></svg>