<svg xmlns="http://www.w3.org/2000/svg" xmlns:xlink="http://www.w3.org/1999/xlink" width="40" height="40" viewBox="0 0 40 40"><title>矩形</title><defs><filter id="a" width="120.2%" height="135.4%" x="-10.1%" y="-14%" filterUnits="objectBoundingBox"><feOffset dy="10" in="SourceAlpha" result="shadowOffsetOuter1"/><feGaussianBlur in="shadowOffsetOuter1" result="shadowBlurOuter1" stdDeviation="14.5"/><feColorMatrix in="shadowBlurOuter1" values="0 0 0 0 0 0 0 0 0 0 0 0 0 0 0 0 0 0 0.06 0"/></filter><path id="b" d="M467 0c7.732 0 14 6.268 14 14v233c0 7.732-6.268 14-14 14H353.036l-12.174 12.205a4 4 0 0 1-5.664 0L323.024 261H14c-7.732 0-14-6.268-14-14V14C0 6.268 6.268 0 14 0z"/></defs><g fill="none" fill-rule="evenodd"><g transform="translate(-280 -163)"><use xlink:href="#b" fill="#000" filter="url(#a)"/><use xlink:href="#b" fill="#fff"/></g><path stroke="#444" stroke-width="4" d="M31 10.891V37.11H9V10.89z"/><path fill="#444" d="M13.143 2.848h14v4.029h-14zM4 8.89h32v4.03H4zM18 17.957v12.087h-4V17.957zm8 0v12.087h-4V17.957z"/></g></svg>